<?xml version="1.0" encoding="utf-8"?>
<!-- Generator: Adobe Illustrator 19.0.0, SVG Export Plug-In . SVG Version: 6.00 Build 0)  -->
<svg version="1.1" id="Layer_1" xmlns="http://www.w3.org/2000/svg" xmlns:xlink="http://www.w3.org/1999/xlink" x="0px" y="0px"
	 viewBox="0 0 800 800" style="enable-background:new 0 0 800 800;" xml:space="preserve">
<g id="XMLID_50_">
	<path id="XMLID_369_" style="fill:#E0013F;" d="M565.3094,754.1003H226.2746c-92.1583,0-167.5605-75.4022-167.5605-167.5605
		V247.505c0-92.1583,75.4022-167.5605,167.5605-167.5605h339.0348c92.1583,0,167.5605,75.4022,167.5605,167.5605v339.0348
		C732.8699,678.6981,657.4677,754.1003,565.3094,754.1003z"/>
	<path id="XMLID_366_" style="fill:#4FA0CA;" d="M528.9519,720.9043H189.9171c-92.1583,0-167.5605-75.4022-167.5605-167.5605
		V214.309c0-92.1583,75.4022-167.5605,167.5605-167.5605h339.0348c92.1583,0,167.5605,75.4022,167.5605,167.5605v339.0348
		C696.5125,645.5021,621.1102,720.9043,528.9519,720.9043z"/>
	<path id="XMLID_362_" style="fill:#FFFFFF;" d="M547.921,736.7119H208.8863c-92.1583,0-167.5605-75.4022-167.5605-167.5605
		V230.1166c0-92.1583,75.4022-167.5605,167.5605-167.5605H547.921c92.1583,0,167.5605,75.4022,167.5605,167.5605v339.0348
		C715.4816,661.3097,640.0793,736.7119,547.921,736.7119z"/>
</g>
<polygon id="XMLID_53_" style="fill:#E0013F;" points="681.0303,50.4185 277.7479,453.7009 118.0907,294.045 22.3572,389.7786 
	182.0143,549.4345 182.0131,549.4357 280.5555,647.9769 376.2891,552.2433 779.5715,148.9609 "/>
</svg>
