<?xml version="1.0" encoding="utf-8"?>
<!-- Generator: Adobe Illustrator 19.0.0, SVG Export Plug-In . SVG Version: 6.00 Build 0)  -->
<svg version="1.1" id="Layer_1" xmlns="http://www.w3.org/2000/svg" xmlns:xlink="http://www.w3.org/1999/xlink" x="0px" y="0px"
	 viewBox="0 0 800 800" style="enable-background:new 0 0 800 800;" xml:space="preserve">
<g id="XMLID_50_">
	<path id="XMLID_369_" style="fill:#E0013F;" d="M565.3094,754.1003H226.2746c-92.1583,0-167.5605-75.4022-167.5605-167.5605
		V247.505c0-92.1583,75.4022-167.5605,167.5605-167.5605h339.0348c92.1583,0,167.5605,75.4022,167.5605,167.5605v339.0348
		C732.8699,678.6981,657.4677,754.1003,565.3094,754.1003z"/>
	<path id="XMLID_366_" style="fill:#4FA0CA;" d="M528.9519,720.9043H189.9171c-92.1583,0-167.5605-75.4022-167.5605-167.5605
		V214.309c0-92.1583,75.4022-167.5605,167.5605-167.5605h339.0348c92.1583,0,167.5605,75.4022,167.5605,167.5605v339.0348
		C696.5125,645.5021,621.1102,720.9043,528.9519,720.9043z"/>
	<path id="XMLID_362_" style="fill:#FFFFFF;" d="M547.921,736.7119H208.8863c-92.1583,0-167.5605-75.4022-167.5605-167.5605
		V230.1166c0-92.1583,75.4022-167.5605,167.5605-167.5605H547.921c92.1583,0,167.5605,75.4022,167.5605,167.5605v339.0348
		C715.4816,661.3097,640.0793,736.7119,547.921,736.7119z"/>
</g>
<g id="XMLID_5_">
	<path id="XMLID_261_" style="fill:#E0013F;" d="M565.7684,754.1003H226.7337c-92.1583,0-167.5605-75.4023-167.5605-167.5605
		V247.505c0-92.1583,75.4022-167.5605,167.5605-167.5605h339.0348c92.1583,0,167.5605,75.4022,167.5605,167.5605v339.0348
		C733.329,678.698,657.9268,754.1003,565.7684,754.1003z"/>
	<path id="XMLID_236_" style="fill:#4FA0CA;" d="M529.411,720.9043H190.3762c-92.1583,0-167.5605-75.4022-167.5605-167.5605V214.309
		c0-92.1583,75.4022-167.5605,167.5605-167.5605H529.411c92.1583,0,167.5605,75.4022,167.5605,167.5605v339.0348
		C696.9715,645.5021,621.5693,720.9043,529.411,720.9043z"/>
	<path id="XMLID_228_" style="fill:#FFFFFF;" d="M548.3801,736.7119H209.3453c-92.1583,0-167.5605-75.4022-167.5605-167.5605
		V230.1166c0-92.1583,75.4022-167.5605,167.5605-167.5605h339.0348c92.1583,0,167.5605,75.4022,167.5605,167.5605v339.0348
		C715.9406,661.3097,640.5384,736.7119,548.3801,736.7119z"/>
	<polygon id="XMLID_225_" style="fill:#E0013F;" points="428.6995,494.9162 329.026,494.9162 314.2595,162.6712 443.4659,162.6712 	
		"/>
	<rect id="XMLID_7_" x="329.026" y="531.2561" style="fill:#E0013F;" width="100.1269" height="100.1269"/>
</g>
</svg>
