<?xml version="1.0" encoding="utf-8"?>
<!-- Generator: Adobe Illustrator 19.0.0, SVG Export Plug-In . SVG Version: 6.00 Build 0)  -->
<svg version="1.1" id="Layer_1" xmlns="http://www.w3.org/2000/svg" xmlns:xlink="http://www.w3.org/1999/xlink" x="0px" y="0px"
	 viewBox="0 0 800 800" style="enable-background:new 0 0 800 800;" xml:space="preserve">
<path id="XMLID_1_" style="fill:#FFFFFF;" d="M375,682l-124-43l-64-52l62-217c0,0,59-50,62-52s102-8,102-8l74,36l80,111l-12,113
	l-24,87L375,682z"/>
<path id="XMLID_56_" style="fill:#E0013F;" d="M623.9741,505.6402C616.1678,368.6401,399.7604,34.0001,399.7604,34.0001
	S177.7356,377.3353,175.3654,510.839c-1.1869,9.3929-1.8682,18.943-1.8682,28.658c0,125.0941,101.4088,226.5029,226.5029,226.5029
	S626.5029,664.5911,626.5029,539.497C626.5029,527.9893,625.6298,516.6866,623.9741,505.6402z M540.0482,574.2582l-69.5157,69.5157
	l-69.5155-69.5157l-1.1212-1.1212L330.38,642.6526l-69.5157-69.5157l69.5157-69.5157l-68.3945-68.3943l69.5157-69.5157
	l69.5157,69.5157l69.5155-69.5157l69.5157,69.5157l-69.5157,69.5155L540.0482,574.2582z"/>
</svg>
